<svg height="512" viewBox="0 0 48 48" width="512" xmlns="http://www.w3.org/2000/svg" xmlns:xlink="http://www.w3.org/1999/xlink"><linearGradient id="linear-gradient" gradientUnits="userSpaceOnUse" x1="5.5" x2="5.5" y1="46.16" y2="14"><stop offset="0" stop-color="#54a5ff"/><stop offset="1" stop-color="#8ad3fe"/></linearGradient><linearGradient id="linear-gradient-2" x1="42.5" x2="42.5" xlink:href="#linear-gradient" y1="46.16"/><linearGradient id="linear-gradient-3" x1="24" x2="24" xlink:href="#linear-gradient" y1="47" y2="31"/><linearGradient id="linear-gradient-4" x1="24" x2="24" xlink:href="#linear-gradient" y1="27"/><linearGradient id="linear-gradient-5" gradientUnits="userSpaceOnUse" x1="24" x2="24" y1="21.38" y2="1"><stop offset="0" stop-color="#d3e6f5"/><stop offset="1" stop-color="#f0f7fc"/></linearGradient><linearGradient id="linear-gradient-6" x1="4" x2="12" xlink:href="#linear-gradient-5" y1="41" y2="41"/><g id="Empty"><path d="m46.62 46.16a2 2 0 0 1 -1.62.84h-42a2 2 0 0 1 -1.62-.84c7.9-17.57 6.26-13.92 8.62-19.16h28c2.54 5.65.66 1.48 8.62 19.16z" fill="#4795ea"/><path d="m10 14v13c-2.54 5.65-.66 1.48-8.62 19.16a1.9 1.9 0 0 1 -.38-1.16v-14z" fill="url(#linear-gradient)"/><path d="m47 31v14a1.9 1.9 0 0 1 -.38 1.16c-7.9-17.57-6.26-13.92-8.62-19.16v-13z" fill="url(#linear-gradient-2)"/><path d="m47 31v14a2 2 0 0 1 -2 2h-42a2 2 0 0 1 -2-2v-14h17.09a1 1 0 0 1 1 .85 5 5 0 0 0 8.47 2.69 5.06 5.06 0 0 0 1.39-2.69 1 1 0 0 1 1-.85z" fill="url(#linear-gradient-3)"/><path d="m10 14h28v13h-28z" fill="url(#linear-gradient-4)"/><path d="m33 10a9 9 0 1 0 -10.57 8.85l1.12 2.26a.51.51 0 0 0 .9 0l1.12-2.26a9 9 0 0 0 7.43-8.85z" fill="url(#linear-gradient-5)"/><path d="m25.41 10 2.3-2.29a1 1 0 1 0 -1.42-1.42l-2.29 2.3-2.29-2.3a1 1 0 0 0 -1.42 1.42l2.3 2.29-2.3 2.29a1 1 0 0 0 1.42 1.42l2.29-2.3 2.29 2.3a1 1 0 0 0 1.42-1.42z" fill="#ffb369"/><rect fill="url(#linear-gradient-6)" height="6" rx="1" width="8" x="4" y="38"/><path d="m9 42h-2a1 1 0 0 1 0-2h2a1 1 0 0 1 0 2z" fill="#ffb369"/><g fill="#4795ea"><path d="m17 44h-2a1 1 0 0 1 0-2h2a1 1 0 0 1 0 2z"/><path d="m19 40h-4a1 1 0 0 1 0-2h4a1 1 0 0 1 0 2z"/></g></g></svg>