<svg id="Layer_1" height="512" viewBox="0 0 512 512" width="512" stroke="currentColor" xmlns="http://www.w3.org/2000/svg" data-name="Layer 1"><path d="m512 80v352a80.09 80.09 0 0 1 -80 80h-352a80.09 80.09 0 0 1 -80-80v-50a24 24 0 0 1 48 0v50a32.035 32.035 0 0 0 32 32h352a32.034 32.034 0 0 0 32-32v-352a32.035 32.035 0 0 0 -32-32h-352a32.036 32.036 0 0 0 -32 32v50a24 24 0 0 1 -48 0v-50a80.091 80.091 0 0 1 80-80h352a80.09 80.09 0 0 1 80 80zm-512 176a24 24 0 0 0 24 24h204.936l-49.4 49.4a24 24 0 0 0 33.941 33.942l90.371-90.371a24 24 0 0 0 0-33.942l-90.371-90.371a24 24 0 1 0 -33.942 33.942l49.4 49.4h-204.935a24 24 0 0 0 -24 24z"/></svg>