<?xml version="1.0" encoding="UTF-8"?>
<svg xmlns="http://www.w3.org/2000/svg" xmlns:svg="http://www.w3.org/2000/svg" width="512" height="512" viewBox="0 0 6.3499999 6.3500002" version="1.1" id="svg5"><defs id="defs2"><marker style="overflow:visible" id="marker7745" refX="0.0" refY="0.0" orient="auto"><path transform="scale(-0.4)" style="fill-rule:evenodd;fill:context-stroke;stroke:context-stroke;stroke-width:1.0pt" d="M 5.77,0.0 L -2.88,5.0 L -2.88,-5.0 L 5.77,0.0 z " id="path7743"/></marker><marker style="overflow:visible" id="marker7503" refX="0.0" refY="0.0" orient="auto"><path transform="scale(-0.2)" style="fill-rule:evenodd;fill:context-stroke;stroke:context-stroke;stroke-width:1.0pt" d="M 5.77,0.0 L -2.88,5.0 L -2.88,-5.0 L 5.77,0.0 z " id="path7501"/></marker><marker style="overflow:visible" id="Arrow1Sstart" refX="0.0" refY="0.0" orient="auto"><path transform="scale(0.2) translate(6,0)" style="fill-rule:evenodd;fill:context-stroke;stroke:context-stroke;stroke-width:1.0pt" d="M 0.0,0.0 L 5.0,-5.0 L -12.5,0.0 L 5.0,5.0 L 0.0,0.0 z " id="path7181"/></marker><marker style="overflow:visible" id="TriangleInS" refX="0.0" refY="0.0" orient="auto"><path transform="scale(-0.2)" style="fill-rule:evenodd;fill:context-stroke;stroke:context-stroke;stroke-width:1.0pt" d="M 5.77,0.0 L -2.88,5.0 L -2.88,-5.0 L 5.77,0.0 z " id="path7308"/></marker><marker style="overflow:visible" id="TriangleInM" refX="0.0" refY="0.0" orient="auto"><path transform="scale(-0.4)" style="fill-rule:evenodd;fill:context-stroke;stroke:context-stroke;stroke-width:1.0pt" d="M 5.77,0.0 L -2.88,5.0 L -2.88,-5.0 L 5.77,0.0 z " id="path7305"/></marker></defs><g id="layer1"><path style="color:rgb(0,0,0);fill:rgb(0,0,0);stroke-linecap:round;stroke-linejoin:round" d="M 4.4970054,-3.9053166e-4 C 4.3515911,1.0962372e-4 4.2338337,0.11786706 4.2333335,0.26328135 l -10e-8,1.05963535 c -1e-7,0.4352418 0.3577271,0.7925942 0.7929687,0.7929688 l 1.0591146,9.114e-4 C 6.230831,2.1162967 6.3485884,1.9985393 6.3490886,1.853125 6.3496649,1.7069486 6.2315934,1.5880025 6.0854167,1.5875 L 5.0263021,1.5865886 C 4.8770432,1.5864601 4.7626302,1.4721757 4.7626303,1.3229167 l 1e-7,-1.05963535 C 4.7621279,0.11710464 4.6431818,-9.6680522e-4 4.4970054,-3.9053166e-4 Z" id="path939"/><path style="color:rgb(0,0,0);fill:rgb(0,0,0);stroke-linecap:round;stroke-linejoin:round" d="M 2.1171875,0 C 1.6819457,0 1.3222656,0.35772697 1.3222656,0.79296875 V 2.9101563 a 0.2645835,0.2645835 0 0 0 0.265625,0.265625 0.2645835,0.2645835 0 0 0 0.2636719,-0.265625 V 0.79296875 c 0,-0.149259 0.116366,-0.26367187 0.265625,-0.26367188 H 4.3886719 L 5.8203125,1.9609375 v 3.5957031 c 0,0.149259 -0.1144129,0.2636719 -0.2636719,0.2636719 H 2.1171875 c -0.149259,0 -0.265625,-0.1144129 -0.265625,-0.2636719 V 5.0273437 a 0.2645835,0.2645835 0 0 0 -0.2636719,-0.265625 0.2645835,0.2645835 0 0 0 -0.265625,0.265625 v 0.5292969 c 1e-7,0.4352418 0.3596801,0.7929688 0.7949219,0.7929688 h 3.4394531 c 0.4352418,0 0.7929688,-0.357727 0.7929688,-0.7929688 V 1.8515625 a 0.26460996,0.26460996 0 0 0 -0.076172,-0.1875 L 4.6855469,0.078125 A 0.26460996,0.26460996 0 0 0 4.4980469,0 Z" id="path501"/><path style="color:rgb(0,0,0);fill:rgb(0,0,0);stroke-linecap:round" d="M 0.2636719,4.234375 C 0.1174952,4.2338725 -5.763e-4,4.1149264 0,3.96875 5.002e-4,3.8233357 0.1182577,3.7055784 0.2636719,3.7050782 l 3.1748698,0 c 0.146177,-5.763e-4 0.265123,0.1174951 0.265625,0.2636718 5.8e-4,0.14694 -0.118685,0.2662046 -0.265625,0.265625 z" id="path1092"/><path style="color:rgb(0,0,0);fill:rgb(0,0,0);stroke-linecap:round;stroke-linejoin:round;-inkscape-stroke:none" d="m 2.7226563,2.9882813 a 0.26458335,0.26458335 0 0 0 0,0.3730468 L 3.3300781,3.96875 2.7226563,4.5761719 a 0.26458335,0.26458335 0 0 0 0,0.3730468 0.26458335,0.26458335 0 0 0 0.375,0 L 3.890625,4.15625 a 0.26460981,0.26460981 0 0 0 0,-0.375 L 3.0976563,2.9882813 a 0.26458335,0.26458335 0 0 0 -0.375,0 z" id="path452"/></g></svg>
