<svg enable-background="new 0 0 32 32" width="30" height="30" viewBox="0 0 32 32" xmlns="http://www.w3.org/2000/svg"><g id="Grid" display="none"/><g id="File"><path d="m28.598 5.958-3.862-3.862c-.642-.642-1.496-.996-2.404-.996h-15.026c-2.702 0-4.9 2.198-4.9 4.9v20c0 2.702 2.198 4.9 4.9 4.9h17.389c2.702 0 4.9-2.198 4.9-4.9v-17.638c-.001-.894-.364-1.771-.997-2.404zm-5.135-2.589 3.862 3.862c.298.298.469.71.469 1.131v.672h-4.026c-1.158 0-2.1-.942-2.1-2.1v-4.034h.664c.427 0 .829.166 1.131.469zm1.231 25.731h-17.388c-1.709 0-3.1-1.391-3.1-3.1v-20c0-1.709 1.391-3.1 3.1-3.1h12.563v4.034c0 2.15 1.75 3.9 3.9 3.9h4.026v15.166c-.001 1.709-1.391 3.1-3.101 3.1z" fill="#6621ba"/><g fill="#f98a17"><path d="m20.55 15.143h-9.1c-.497 0-.9.403-.9.9s.403.9.9.9h9.1c.497 0 .9-.403.9-.9s-.403-.9-.9-.9z"/><path d="m15.5 20.084h-4.05c-.497 0-.9.403-.9.9s.403.9.9.9h4.05c.497 0 .9-.403.9-.9s-.403-.9-.9-.9z"/></g></g><g id="Delete_File"/><g id="New_File"/><g id="Approved"/><g id="Favorite"/><g id="Create_File"/><g id="Download_File"/><g id="Upload_File"/><g id="Music_File"/><g id="Video_File"/><g id="Files"/><g id="Clipboard"/><g id="Task"/><g id="Report"/><g id="Search_File"/><g id="Folder"/><g id="New_Folder"/><g id="Delete_Folder"/><g id="Zip_File"/><g id="Image_File"/><g id="Cloud_File"/><g id="Link_File"/><g id="Exchange_File"/><g id="Blokir_File"/><g id="Setting"/></svg>