<svg id="Capa_1" enable-background="new 0 0 512 512" height="512" viewBox="0 0 512 512" width="512" xmlns="http://www.w3.org/2000/svg" xmlns:xlink="http://www.w3.org/1999/xlink"><linearGradient id="SVGID_1_" gradientUnits="userSpaceOnUse" x1="256" x2="256" y1="512" y2="0"><stop offset="0" stop-color="#ffc2cc"/><stop offset="1" stop-color="#fff2f4"/></linearGradient><linearGradient id="SVGID_2_" gradientUnits="userSpaceOnUse" x1="256" x2="256" y1="344.75" y2="114"><stop offset="0" stop-color="#ffa68d"/><stop offset="1" stop-color="#fd3a84"/></linearGradient><g><g><circle cx="256" cy="256" fill="url(#SVGID_1_)" r="256"/></g><g><g><path d="m344.824 273.75c-34.28 0-62.177 27.873-62.177 62.125s27.896 62.125 62.177 62.125 62.176-27.873 62.176-62.125-27.896-62.125-62.176-62.125zm24.044 68.4c-3.47 3.467-9.091 3.467-12.56 0l-2.602-2.6v14.075c0 4.906-3.973 8.875-8.882 8.875s-8.882-3.969-8.882-8.875v-14.075l-2.602 2.6c-3.47 3.467-9.091 3.467-12.56 0s-3.47-9.083 0-12.55l17.754-17.739c.822-.823 1.806-1.477 2.899-1.928 3.417-1.412 7.236-.523 9.683 1.928l17.754 17.739c3.468 3.467 3.468 9.083-.002 12.55zm-166.162-157.15c4.901 0 8.882-3.978 8.882-8.875s-3.981-8.875-8.882-8.875-8.882 3.978-8.882 8.875 3.981 8.875 8.882 8.875zm-10.826 38.828 32.146 40.154 60.563-75.654c3.383-4.212 10.496-4.212 13.879 0l54.873 68.532c.121.014.243.023.364.037v-116.272c0-14.682-11.953-26.625-26.647-26.625h-195.411c-14.694 0-26.647 11.943-26.647 26.625v174.381l73.002-91.178c3.383-4.212 10.496-4.212 13.878 0zm10.826-74.328c14.694 0 26.647 11.943 26.647 26.625s-11.953 26.625-26.647 26.625-26.647-11.943-26.647-26.625 11.953-26.625 26.647-26.625zm128.306 107.894-39.483-49.314-60.563 75.654c-3.383 4.212-10.496 4.212-13.879 0l-32.146-40.154-73.457 91.753c4.891 5.713 12.066 9.417 20.163 9.417h134.133c-.333-2.952-.898-5.836-.898-8.875 0-39.32 28.637-71.902 66.13-78.481z" fill="url(#SVGID_2_)"/></g></g></g></svg>