<svg id="Layer_1" enable-background="new 0 0 512 512" viewBox="0 0 512 512" xmlns="http://www.w3.org/2000/svg"><g><path d="m462.606 97.607-68.566-31.586-27.928-66.021h-110.112l-35.883 329.255 35.883 182.745h206.606v-61.347l-31.649-111.093 31.649-115.674z" fill="#c6e1e4"/><path d="m113.129 0v160.63l-28.129 152.03 28.129 123.063v76.277h142.871v-512z" fill="#eef5f6"/><path d="m462.606 223.886h-206.606l-35.883 114.741 35.883 112.026h206.606z" fill="#2e8ae6"/><path d="m366.112 97.607h96.494c-28.321-28.321-68.173-69.286-96.494-97.607z" fill="#a6d1d6"/><path d="m113.129 223.886-63.734-32.801v208.166c0 28.388 22.891 51.401 51.129 51.401h155.476v-96.802l-11.681-27.915 11.681-37.786v-64.263z" fill="#4da6ff"/><path d="m113.129 223.886h-32.19c-17.421 0-31.544-14.123-31.544-31.544v-.168c0-17.421 14.123-31.544 31.544-31.544h32.19z" fill="#2e8ae6"/><path d="m405.5 368.424h-29v-92.349h-30v122.349h59z" fill="#0a1f33"/><path d="m151.5 398.424c24.813 0 45-20.187 45-45v-77.349h-30v77.349c0 8.271-6.729 15-15 15s-15-6.729-15-15v-77.349h-30v77.349c0 24.813 20.187 45 45 45z" fill="#143d66"/><path d="m301.227 354.364c9.057-8.237 14.751-20.111 14.751-33.289 0-24.813-20.187-45-45-45h-14.978l-6.574 14.797 6.574 15.203h14.979c8.271 0 15 6.729 15 15s-6.729 15-15 15h-14.979l-8.277 14.712 8.277 15.288s16.357-.021 17.041-.052l20.982 32.441 25.189-16.293z" fill="#0a1f33"/><path d="m256 306.075v-30h-30.021v122.389h30.021v-32.389-30z" fill="#143d66"/></g><g/><g/><g/><g/><g/><g/><g/><g/><g/><g/><g/><g/><g/><g/><g/></svg>